<svg width="20" height="19" viewBox="0 0 20 19" fill="none" xmlns="http://www.w3.org/2000/svg">
<path d="M18.243 1.75698C20.505 4.02498 20.583 7.63698 18.479 9.99298L10.3529 18.1306C10.1575 18.3262 9.84051 18.3262 9.6452 18.1306L1.52101 9.99298C-0.582994 7.63698 -0.503994 4.01898 1.75701 1.75698C3.91409 -0.399154 7.30286 -0.570812 9.65592 1.24201C9.85809 1.39777 10.1438 1.39765 10.3459 1.24181C12.6935 -0.568328 16.088 -0.401787 18.243 1.75698ZM3.17201 3.17198C1.68201 4.66198 1.60701 7.04698 2.98001 8.62298L9.6462 15.2996C9.84152 15.4952 10.1585 15.4953 10.3538 15.2996L17.02 8.62398C18.394 7.04698 18.319 4.66498 16.827 3.16998C15.34 1.67998 12.946 1.60798 11.374 2.98398L7.52543 6.83347C7.33023 7.02872 7.01371 7.0288 6.81841 6.83363L6.11068 6.12641C5.91535 5.93122 5.91524 5.61463 6.11043 5.4193L8.50625 3.02179C8.547 2.98101 8.54411 2.91409 8.50001 2.87698C6.92501 1.61198 4.62301 1.71998 3.17201 3.17198Z" fill="#A6A6A6"/>
</svg>
