<svg width="21" height="20" viewBox="0 0 21 20" fill="none" xmlns="http://www.w3.org/2000/svg">
<path fill-rule="evenodd" clip-rule="evenodd" d="M16 18C16.2761 18 16.5 17.7761 16.5 17.5V8.37818C16.5 8.2373 16.4406 8.10296 16.3363 8.00819L10.8363 3.00869C10.6456 2.83534 10.3544 2.83534 10.1637 3.00869L4.66368 8.00819C4.55943 8.10295 4.5 8.2373 4.5 8.37818V17.5C4.5 17.7761 4.72386 18 5 18H16ZM17.5 20H3.5C3.23478 20 2.98043 19.8946 2.79289 19.7071C2.60536 19.5196 2.5 19.2652 2.5 19V10.5C2.5 10.2238 2.27614 9.99998 2 9.99998H0.793322C0.336304 9.99998 0.11882 9.43743 0.456989 9.13001L9.827 0.611981C10.0111 0.444459 10.2511 0.351624 10.5 0.351624C10.7489 0.351624 10.9889 0.444459 11.173 0.611981L20.543 9.13001C20.8812 9.43743 20.6637 9.99998 20.2067 9.99998H19C18.7239 9.99998 18.5 10.2238 18.5 10.5V19C18.5 19.2652 18.3946 19.5196 18.2071 19.7071C18.0196 19.8946 17.7652 20 17.5 20Z" fill="#A6A6A6"/>
<path d="M6.5 13.5C6.5 13.2238 6.7254 12.9957 6.99771 13.0415C7.60873 13.1443 8.17742 13.4348 8.62132 13.8787C9.06522 14.3226 9.35564 14.8912 9.45844 15.5023C9.50425 15.7746 9.27614 16 9 16H7C6.72386 16 6.5 15.7761 6.5 15.5V13.5Z" fill="#A6A6A6"/>
<path d="M6.5 9.49998C6.5 9.22384 6.72417 8.99812 6.99961 9.01782C8.67352 9.13753 10.2553 9.85574 11.4497 11.0502C12.6442 12.2447 13.3625 13.8265 13.4822 15.5004C13.5019 15.7758 13.2761 16 13 16H12C11.7239 16 11.5026 15.7756 11.475 15.5008C11.3604 14.358 10.8548 13.2837 10.0355 12.4644C9.21626 11.6452 8.14194 11.1396 6.99919 11.0249C6.72442 10.9974 6.5 10.7761 6.5 10.5V9.49998Z" fill="#A6A6A6"/>
</svg>
