<svg width="21" height="20" viewBox="0 0 21 20" fill="none" xmlns="http://www.w3.org/2000/svg">
<path d="M10.5 20C4.977 20 0.5 15.523 0.5 10C0.5 4.477 4.977 0 10.5 0C16.023 0 20.5 4.477 20.5 10C20.5 15.523 16.023 20 10.5 20ZM10.5 18C12.6217 18 14.6566 17.1571 16.1569 15.6569C17.6571 14.1566 18.5 12.1217 18.5 10C18.5 7.87827 17.6571 5.84344 16.1569 4.34315C14.6566 2.84285 12.6217 2 10.5 2C8.37827 2 6.34344 2.84285 4.84315 4.34315C3.34285 5.84344 2.5 7.87827 2.5 10C2.5 12.1217 3.34285 14.1566 4.84315 15.6569C6.34344 17.1571 8.37827 18 10.5 18ZM5.52497 10.4992C5.49741 10.2244 5.72386 10 6 10H7C7.27614 10 7.49575 10.2254 7.54156 10.4977C7.64436 11.1087 7.93478 11.6774 8.37868 12.1213C8.94129 12.6839 9.70435 13 10.5 13C11.2956 13 12.0587 12.6839 12.6213 12.1213C13.0652 11.6774 13.3556 11.1087 13.4584 10.4977C13.5043 10.2254 13.7239 10 14 10H15C15.2761 10 15.5026 10.2244 15.475 10.4992C15.3604 11.6419 14.8548 12.7163 14.0355 13.5355C13.0979 14.4732 11.8261 15 10.5 15C9.17392 15 7.90215 14.4732 6.96447 13.5355C6.14519 12.7163 5.63959 11.6419 5.52497 10.4992Z" fill="#A6A6A6"/>
</svg>
